<svg width="20" height="24" viewBox="0 0 20 24" xmlns="http://www.w3.org/2000/svg"><title>notification_bell [#1397] copy 2</title><path d="M14.286 16.667H4.762V9.524c0-3.174 2.381-4.762 4.76-4.762h.003c2.38 0 4.761 1.588 4.761 4.762v7.143zm-3.571 3.572a1.19 1.19 0 0 1-2.382 0v-1.191h2.382v1.19zm7.143-3.572a1.19 1.19 0 0 1-1.191-1.19V9.523c0-4.23-2.82-6.578-5.952-7.049V1.191a1.19 1.19 0 0 0-2.382 0v1.284c-3.133.471-5.952 2.82-5.952 7.049v5.952a1.19 1.19 0 0 1-1.19 1.191 1.19 1.19 0 0 0 0 2.381h4.762v1.19a3.571 3.571 0 1 0 7.142 0v-1.19h4.763a1.19 1.19 0 0 0 0-2.381z" fill="#C4C4C4" fill-rule="evenodd"/></svg>