<?xml version="1.0" encoding="UTF-8" standalone="no"?>
<svg width="20px" height="24px" viewBox="0 0 20 24" version="1.1" xmlns="http://www.w3.org/2000/svg" xmlns:xlink="http://www.w3.org/1999/xlink">
    <!-- Generator: Sketch 42 (36781) - http://www.bohemiancoding.com/sketch -->
    <title>notification_bell [#1397] copy 2</title>
    <desc>Created with Sketch.</desc>
    <defs></defs>
    <g id="Page-1" stroke="none" stroke-width="1" fill="none" fill-rule="evenodd">
        <g id="Government" transform="translate(-1080.000000, -742.000000)" fill="#C4C4C4">
            <path d="M1094.286,758.667 L1084.762,758.667 L1084.762,751.524 C1084.762,748.350127 1087.143,746.762 1089.52281,746.762 L1089.52519,746.762 C1091.905,746.762 1094.286,748.350127 1094.286,751.524 L1094.286,758.667 Z M1090.7145,762.2385 C1090.7145,762.895656 1090.18116,763.429 1089.524,763.429 C1088.86684,763.429 1088.3335,762.895656 1088.3335,762.2385 L1088.3335,761.048 L1090.7145,761.048 L1090.7145,762.2385 Z M1097.8575,758.667 C1097.20034,758.667 1096.667,758.133656 1096.667,757.4765 L1096.667,751.524 C1096.667,747.294153 1093.8479,744.946487 1090.7145,744.475049 L1090.7145,743.1905 C1090.7145,742.533344 1090.18116,742 1089.524,742 C1088.86684,742 1088.3335,742.533344 1088.3335,743.1905 L1088.3335,744.475049 C1085.2001,744.946487 1082.381,747.294153 1082.381,751.524 L1082.381,757.4765 C1082.381,758.133656 1081.84766,758.667 1081.1905,758.667 C1080.53334,758.667 1080,759.200344 1080,759.8575 C1080,760.514656 1080.53334,761.048 1081.1905,761.048 L1085.9525,761.048 L1085.9525,762.2385 C1085.9525,764.211158 1087.55134,765.809999 1089.524,765.809999 C1091.49666,765.809999 1093.0955,764.211158 1093.0955,762.2385 L1093.0955,761.048 L1097.8575,761.048 C1098.51466,761.048 1099.048,760.514656 1099.048,759.8575 C1099.048,759.200344 1098.51466,758.667 1097.8575,758.667 L1097.8575,758.667 Z" id="notification_bell-[#1397]-copy-2"></path>
        </g>
    </g>
</svg>