<?xml version="1.0" encoding="UTF-8" standalone="no"?>
<svg width="243px" height="83px" viewBox="0 0 243 83" version="1.1" xmlns="http://www.w3.org/2000/svg" xmlns:xlink="http://www.w3.org/1999/xlink">
    <!-- Generator: Sketch 42 (36781) - http://www.bohemiancoding.com/sketch -->
    <title>apple</title>
    <desc>Created with Sketch.</desc>
    <defs></defs>
    <g id="Page-1" stroke="none" stroke-width="1" fill="none" fill-rule="evenodd">
        <g id="Landing" transform="translate(-177.000000, -1924.000000)">
            <g id="apple" transform="translate(177.000000, 1924.000000)">
                <rect id="bg" fill="#000000" x="0" y="0" width="242.370284" height="82.1910112" rx="12"></rect>
                <path d="M93.8666553,60.0932225 L89.7409104,60.0932225 L87.480925,52.9911404 L79.6254776,52.9911404 L77.4726781,60.0932225 L73.4559356,60.0932225 L81.2387147,35.9145303 L86.0457254,35.9145303 L93.8666553,60.0932225 L93.8666553,60.0932225 Z M86.7996594,50.0115 L80.30856,50.0115 L82.3160228,43.6979326 C82.8428683,41.690309 83.2261938,40.1714191 83.4641826,39.1430798 L83.5368509,39.1430798 C84.134548,41.5340596 84.539674,43.0529494 84.7558623,43.6979326 L86.7996594,50.0115 Z M113.881333,51.1615685 C113.881333,54.1266742 113.080164,56.4704157 111.477827,58.1909764 C110.042628,59.7225843 108.260437,60.4874798 106.133071,60.4874798 C103.836751,60.4874798 102.18718,59.6626281 101.18254,58.0129247 L101.109872,58.0129247 L101.109872,67.1971213 L97.2366496,67.1971213 L97.2366496,48.3981337 C97.2366496,46.5340416 97.1875984,44.6208944 97.0931296,42.6586921 L100.499458,42.6586921 L100.715646,45.422127 L100.788315,45.422127 C102.079994,43.3400124 104.040223,42.3007719 106.670817,42.3007719 C108.727331,42.3007719 110.44412,43.1129056 111.817552,44.7389899 C113.194617,46.366891 113.881333,48.5071449 113.881333,51.1615685 Z M109.935442,51.3032831 C109.935442,49.6063416 109.553933,48.207364 108.787282,47.1063506 C107.949779,45.9580989 106.825237,45.383973 105.415471,45.383973 C104.459882,45.383973 103.591496,45.7037393 102.815761,46.3341876 C102.03821,46.9700865 101.529532,47.8003888 101.291543,48.8287281 C101.17164,49.3083775 101.111689,49.700818 101.111689,50.0096831 L101.111689,52.9166494 C101.111689,54.1848135 101.500464,55.2549404 102.278016,56.1288472 C103.055567,57.0027539 104.065657,57.4387989 105.308285,57.4387989 C106.767102,57.4387989 107.902545,56.8755742 108.714614,55.7527584 C109.528499,54.6281258 109.935442,53.145573 109.935442,51.3032831 Z M133.932344,51.1615685 C133.932344,54.1266742 133.131176,56.4704157 131.527022,58.1909764 C130.093639,59.7225843 128.311448,60.4874798 126.184082,60.4874798 C123.887763,60.4874798 122.238192,59.6626281 121.235369,58.0129247 L121.1627,58.0129247 L121.1627,67.1971213 L117.289478,67.1971213 L117.289478,48.3981337 C117.289478,46.5340416 117.240427,44.6208944 117.145958,42.6586921 L120.552286,42.6586921 L120.768474,45.422127 L120.841143,45.422127 C122.131006,43.3400124 124.091234,42.3007719 126.723645,42.3007719 C128.778342,42.3007719 130.495132,43.1129056 131.872197,44.7389899 C133.243812,46.366891 133.932344,48.5071449 133.932344,51.1615685 Z M129.986453,51.3032831 C129.986453,49.6063416 129.603128,48.207364 128.836477,47.1063506 C127.998974,45.9580989 126.878065,45.383973 125.466483,45.383973 C124.509077,45.383973 123.642507,45.7037393 122.864956,46.3341876 C122.087405,46.9700865 121.580543,47.8003888 121.342554,48.8287281 C121.224468,49.3083775 121.1627,49.700818 121.1627,50.0096831 L121.1627,52.9166494 C121.1627,54.1848135 121.551476,55.2549404 122.325394,56.1288472 C123.102945,57.0009371 124.113035,57.4387989 125.359297,57.4387989 C126.818114,57.4387989 127.953556,56.8755742 128.765625,55.7527584 C129.579511,54.6281258 129.986453,53.145573 129.986453,51.3032831 Z M156.350527,53.3127236 C156.350527,55.3694022 155.63656,57.0427247 154.203177,58.3345079 C152.628091,59.7462034 150.435324,60.4511427 147.617609,60.4511427 C145.016082,60.4511427 142.930501,59.949691 141.351781,58.9449708 L142.249235,55.7164213 C143.949675,56.7447607 145.815434,57.2607472 147.848331,57.2607472 C149.307148,57.2607472 150.442591,56.9300798 151.258293,56.2723787 C152.070362,55.6146775 152.475487,54.7316865 152.475487,53.630673 C152.475487,52.6495719 152.141213,51.8229034 151.470848,51.1524843 C150.804116,50.4820652 149.690473,49.8588843 148.135371,49.2829416 C143.90244,47.7040955 141.787792,45.3912404 141.787792,42.349827 C141.787792,40.3621888 142.529009,38.7324708 144.013259,37.4643067 C145.49206,36.1943258 147.465006,35.5602438 149.932096,35.5602438 C152.13213,35.5602438 153.959738,35.9436 155.418555,36.7084955 L154.45025,39.8661876 C153.087718,39.1249112 151.547149,38.754273 149.823093,38.754273 C148.460562,38.754273 147.395971,39.090391 146.632953,39.7589933 C145.988022,40.3567382 145.664647,41.0852966 145.664647,41.9483022 C145.664647,42.9039674 146.033439,43.6942989 146.774656,44.3156629 C147.419588,44.8897888 148.591365,45.5111528 150.291804,46.1815719 C152.371935,47.0191416 153.899787,47.9984258 154.882626,49.1212416 C155.861832,50.2404236 156.350527,51.641218 156.350527,53.3127236 Z M169.156505,45.5656584 L164.88724,45.5656584 L164.88724,54.0303809 C164.88724,56.1833528 165.639357,57.2589303 167.147225,57.2589303 C167.839391,57.2589303 168.413471,57.1989742 168.867648,57.0790618 L168.974834,60.0205483 C168.211816,60.3057944 167.207177,60.4493258 165.962731,60.4493258 C164.433063,60.4493258 163.237669,59.9823944 162.374732,59.0503483 C161.515429,58.1164854 161.083052,56.5503573 161.083052,54.3501472 L161.083052,45.5620247 L158.53966,45.5620247 L158.53966,42.6550584 L161.083052,42.6550584 L161.083052,39.4628461 L164.88724,38.3145944 L164.88724,42.6550584 L169.156505,42.6550584 L169.156505,45.5656584 Z M188.419065,51.2324258 C188.419065,53.9122854 187.652414,56.1124955 186.122745,57.8330562 C184.518592,59.6044888 182.389409,60.4874798 179.735198,60.4874798 C177.177273,60.4874798 175.140742,59.639009 173.621974,57.9420674 C172.103206,56.2451258 171.343822,54.1030551 171.343822,51.5213056 C171.343822,48.8196438 172.125006,46.6067157 173.692826,44.8861551 C175.257012,43.1637775 177.368027,42.3025888 180.022238,42.3025888 C182.580164,42.3025888 184.638494,43.1510596 186.19178,44.849818 C187.677848,46.4977045 188.419065,48.6252404 188.419065,51.2324258 Z M184.400506,51.3577888 C184.400506,49.749873 184.057148,48.3708809 183.361348,47.2208124 C182.54928,45.8291022 181.388403,45.135064 179.884168,45.135064 C178.327249,45.135064 177.144572,45.8309191 176.332503,47.2208124 C175.636704,48.3726978 175.293346,49.7734921 175.293346,51.4304629 C175.293346,53.0383787 175.636704,54.4173708 176.332503,55.5656225 C177.170006,56.9573326 178.339966,57.6513708 179.849651,57.6513708 C181.328452,57.6513708 182.489328,56.9427978 183.326831,55.5292854 C184.040797,54.3574146 184.400506,52.9638876 184.400506,51.3577888 Z M201.008854,46.0652933 C200.625529,45.994436 200.21677,45.9580989 199.788026,45.9580989 C198.425495,45.9580989 197.371804,46.4722685 196.630587,47.5024247 C195.985656,48.4108517 195.662281,49.5591034 195.662281,50.9453629 L195.662281,60.0932225 L191.790876,60.0932225 L191.82721,48.1492247 C191.82721,46.1397843 191.778159,44.3102124 191.681873,42.660509 L195.055501,42.660509 L195.197204,45.9962528 L195.30439,45.9962528 C195.713149,44.849818 196.358081,43.9268562 197.241001,43.2346348 C198.103938,42.6114539 199.035909,42.3007719 200.040549,42.3007719 C200.39844,42.3007719 200.721815,42.3262079 201.008854,42.3716292 L201.008854,46.0652933 Z M218.33117,50.5511056 C218.33117,51.2451438 218.285752,51.8301708 218.189467,52.3080034 L206.569799,52.3080034 C206.615217,54.0303809 207.17658,55.3476 208.255705,56.256027 C209.23491,57.0681607 210.501156,57.475136 212.056259,57.475136 C213.776682,57.475136 215.346318,57.200791 216.7579,56.6502843 L217.364681,59.3392281 C215.71511,60.0587022 213.767598,60.4166225 211.52033,60.4166225 C208.817067,60.4166225 206.695152,59.6208404 205.15095,58.0310933 C203.610381,56.4413461 202.83828,54.3065427 202.83828,51.6285 C202.83828,48.9995124 203.55588,46.8102034 204.992896,45.0642067 C206.497131,43.2001146 208.530028,42.2680685 211.087953,42.2680685 C213.600461,42.2680685 215.502555,43.2001146 216.794234,45.0642067 C217.817041,46.5449427 218.33117,48.3763315 218.33117,50.5511056 Z M214.637801,49.5463854 C214.663235,48.3981337 214.410713,47.4061315 213.885684,46.5685618 C213.215319,45.4911674 212.185245,44.9533787 210.799096,44.9533787 C209.532851,44.9533787 208.502777,45.4784494 207.716142,46.5322247 C207.071211,47.3697944 206.687885,48.3745146 206.569799,49.5445685 L214.637801,49.5445685 L214.637801,49.5463854 Z" id="app-store" fill="#FFFFFF"></path>
                <path d="M85.5188799,21.0399472 C85.5188799,23.1783843 84.8775818,24.7881169 83.5968023,25.8691449 C82.4104917,26.8665978 80.7245862,27.3662326 78.5409026,27.3662326 C77.4581444,27.3662326 76.5316231,27.3189944 75.7558885,27.224518 L75.7558885,15.5403303 C76.7677952,15.3768135 77.8578202,15.2932382 79.0350473,15.2932382 C81.1151785,15.2932382 82.682998,15.7456348 83.7403223,16.6504281 C84.9248162,17.6733169 85.5188799,19.1358843 85.5188799,21.0399472 Z M83.511417,21.092636 C83.511417,19.7063764 83.1444419,18.6435169 82.4104917,17.9022404 C81.6765415,17.1627809 80.6046835,16.7921427 79.193101,16.7921427 C78.5935872,16.7921427 78.0830921,16.8321135 77.659799,16.9156888 L77.659799,25.7982876 C77.8941544,25.8346247 78.3228976,25.8509764 78.9460286,25.8509764 C80.4030288,25.8509764 81.5275714,25.445818 82.3196563,24.6355011 C83.1117412,23.8251843 83.511417,22.6442292 83.511417,21.092636 Z M96.1629749,22.907673 C96.1629749,24.2248921 95.7869162,25.3041034 95.0347989,26.1507573 C94.2463474,27.0210303 93.20174,27.4552584 91.8973434,27.4552584 C90.6401811,27.4552584 89.6391747,27.0391989 88.8925075,26.2034461 C88.1476571,25.3695101 87.7752318,24.3175517 87.7752318,23.0493876 C87.7752318,21.7230843 88.1585573,20.6347888 88.9288417,19.7899517 C89.6991261,18.9451146 90.7346499,18.5217876 92.0390466,18.5217876 C93.2962089,18.5217876 94.3062988,18.9378472 95.0711331,19.7717831 C95.7978165,20.5821 96.1629749,21.6286079 96.1629749,22.907673 Z M94.1882127,22.9694461 C94.1882127,22.1791146 94.0174421,21.5014281 93.6777177,20.9363865 C93.2780418,20.2532494 92.709412,19.9116809 91.9700117,19.9116809 C91.2051774,19.9116809 90.6238307,20.2532494 90.2241548,20.9363865 C89.8826137,21.5014281 89.7136598,22.1900157 89.7136598,23.0039663 C89.7136598,23.7942978 89.8844304,24.4719843 90.2241548,25.0370258 C90.6365477,25.7201629 91.2106275,26.0617315 91.9518446,26.0617315 C92.678528,26.0617315 93.2489745,25.7147124 93.6595506,25.0188573 C94.011992,24.4429146 94.1882127,23.7597775 94.1882127,22.9694461 Z M110.435037,18.6962056 L107.755392,27.2608551 L106.011352,27.2608551 L104.901343,23.5417551 C104.619753,22.6133427 104.390848,21.6903809 104.21281,20.7746865 L104.178293,20.7746865 C104.012972,21.7158169 103.784067,22.6369618 103.48976,23.5417551 L102.310716,27.2608551 L100.546692,27.2608551 L98.0269178,18.6962056 L99.9835128,18.6962056 L100.951818,22.7677753 C101.186174,23.7307079 101.378745,24.6482191 101.533165,25.5166753 L101.567683,25.5166753 C101.709386,24.8008348 101.943741,23.8887742 102.274382,22.7859438 L103.48976,18.6980225 L105.041229,18.6980225 L106.205739,22.6987348 C106.487329,23.6743854 106.716234,24.6136989 106.892455,25.5184921 L106.94514,25.5184921 C107.074126,24.637318 107.268514,23.6980045 107.526486,22.6987348 L108.565644,18.6980225 L110.435037,18.6980225 L110.435037,18.6962056 Z M120.305214,27.2608551 L118.401303,27.2608551 L118.401303,22.3553494 C118.401303,20.843727 117.827223,20.0879157 116.67543,20.0879157 C116.110434,20.0879157 115.65444,20.2950371 115.300182,20.7110966 C114.949557,21.1271562 114.77152,21.6177067 114.77152,22.1791146 L114.77152,27.2590382 L112.867609,27.2590382 L112.867609,21.1435079 C112.867609,20.3913303 112.843992,19.5755629 112.798574,18.6925719 L114.471763,18.6925719 L114.560782,20.0315933 L114.613466,20.0315933 C114.835105,19.6155337 115.165746,19.2721483 115.599939,18.9978034 C116.115884,18.6780371 116.693597,18.5163371 117.325812,18.5163371 C118.125164,18.5163371 118.790079,18.7743303 119.318741,19.2921337 C119.97639,19.9262157 120.305214,20.8727966 120.305214,22.1300596 L120.305214,27.2608551 Z M123.653408,14.7663506 L125.555501,14.7663506 L125.555501,27.2608551 L123.653408,27.2608551 L123.653408,14.7663506 Z M136.764593,22.907673 C136.764593,24.2248921 136.388534,25.3041034 135.636417,26.1507573 C134.847965,27.0210303 133.801541,27.4552584 132.498961,27.4552584 C131.239982,27.4552584 130.238976,27.0391989 129.494125,26.2034461 C128.749275,25.3695101 128.37685,24.3175517 128.37685,23.0493876 C128.37685,21.7230843 128.760175,20.6347888 129.530459,19.7899517 C130.300744,18.9451146 131.336268,18.5217876 132.638848,18.5217876 C133.897827,18.5217876 134.9061,18.9378472 135.672751,19.7717831 C136.399434,20.5821 136.764593,21.6286079 136.764593,22.907673 Z M134.788014,22.9694461 C134.788014,22.1791146 134.617243,21.5014281 134.277519,20.9363865 C133.87966,20.2532494 133.309213,19.9116809 132.571629,19.9116809 C131.804978,19.9116809 131.223632,20.2532494 130.825773,20.9363865 C130.484231,21.5014281 130.315278,22.1900157 130.315278,23.0039663 C130.315278,23.7942978 130.486048,24.4719843 130.825773,25.0370258 C131.238165,25.7201629 131.812245,26.0617315 132.553462,26.0617315 C133.280146,26.0617315 133.848775,25.7147124 134.259352,25.0188573 C134.61361,24.4429146 134.788014,23.7597775 134.788014,22.9694461 Z M145.978938,27.2608551 L144.269415,27.2608551 L144.127712,26.2743034 L144.075028,26.2743034 C143.490047,27.0610011 142.656178,27.4552584 141.57342,27.4552584 C140.764985,27.4552584 140.11097,27.1954483 139.618642,26.6794618 C139.171731,26.2107135 138.948276,25.6275034 138.948276,24.935282 C138.948276,23.8887742 139.384286,23.0911753 140.261756,22.5388517 C141.13741,21.9865281 142.369138,21.7158169 143.955125,21.7285348 L143.955125,21.5686517 C143.955125,20.4403854 143.362878,19.8771607 142.176567,19.8771607 C141.331798,19.8771607 140.586947,20.0897326 139.943832,20.5112427 L139.556874,19.2612472 C140.352592,18.7688798 141.335431,18.5217876 142.494491,18.5217876 C144.732676,18.5217876 145.855402,19.7027427 145.855402,22.0646528 L145.855402,25.2187112 C145.855402,26.0744494 145.897186,26.7557697 145.978938,27.2608551 Z M144.002359,24.3175517 L144.002359,22.9966989 C141.902244,22.9603618 140.852187,23.5363045 140.852187,24.7227101 C140.852187,25.1696562 140.972089,25.5039573 141.217345,25.7274303 C141.462601,25.9509034 141.775075,26.0617315 142.1475,26.0617315 C142.565343,26.0617315 142.955935,25.9291011 143.31201,25.6656573 C143.669902,25.4003966 143.889723,25.0642787 143.971475,24.6518528 C143.991459,24.5591933 144.002359,24.4465483 144.002359,24.3175517 Z M156.797437,27.2608551 L155.107898,27.2608551 L155.018879,25.8854966 L154.966195,25.8854966 C154.426632,26.9320045 153.507378,27.4552584 152.215698,27.4552584 C151.183808,27.4552584 150.324505,27.0501 149.643239,26.2397831 C148.961973,25.4294663 148.622249,24.3775079 148.622249,23.0857247 C148.622249,21.6994652 148.991041,20.5766494 149.732258,19.7190944 C150.449858,18.9196787 151.329144,18.5199708 152.375569,18.5199708 C153.525545,18.5199708 154.330347,18.9069607 154.788157,19.6827573 L154.824492,19.6827573 L154.824492,14.7663506 L156.730219,14.7663506 L156.730219,24.9534506 C156.730219,25.7873865 156.752019,26.5559157 156.797437,27.2608551 Z M154.824492,23.6489494 L154.824492,22.2209022 C154.824492,21.9738101 154.806324,21.7739562 154.771807,21.6213404 C154.664621,21.1634933 154.433899,20.7783202 154.083274,20.4676382 C153.729016,20.1569562 153.30209,20.0007067 152.809762,20.0007067 C152.099429,20.0007067 151.543516,20.2823191 151.134757,20.8473607 C150.729631,21.4124022 150.524343,22.1336933 150.524343,23.0148674 C150.524343,23.8615213 150.71873,24.5482921 151.109323,25.0769966 C151.521716,25.6402213 152.077628,25.9218337 152.773428,25.9218337 C153.398375,25.9218337 153.89797,25.6874596 154.277662,25.2168944 C154.644637,24.7826663 154.824492,24.2594124 154.824492,23.6489494 Z M173.080595,22.907673 C173.080595,24.2248921 172.704536,25.3041034 171.952419,26.1507573 C171.163968,27.0210303 170.121177,27.4552584 168.814964,27.4552584 C167.559618,27.4552584 166.558612,27.0391989 165.810128,26.2034461 C165.065277,25.3695101 164.692852,24.3175517 164.692852,23.0493876 C164.692852,21.7230843 165.076177,20.6347888 165.846462,19.7899517 C166.616746,18.9451146 167.65227,18.5217876 168.958484,18.5217876 C170.213829,18.5217876 171.225736,18.9378472 171.988753,19.7717831 C172.715437,20.5821 173.080595,21.6286079 173.080595,22.907673 Z M171.10765,22.9694461 C171.10765,22.1791146 170.936879,21.5014281 170.597155,20.9363865 C170.195662,20.2532494 169.628849,19.9116809 168.887632,19.9116809 C168.124614,19.9116809 167.543268,20.2532494 167.141775,20.9363865 C166.800234,21.5014281 166.63128,22.1900157 166.63128,23.0039663 C166.63128,23.7942978 166.802051,24.4719843 167.141775,25.0370258 C167.554168,25.7201629 168.128248,26.0617315 168.869465,26.0617315 C169.596148,26.0617315 170.168411,25.7147124 170.578987,25.0188573 C170.929612,24.4429146 171.10765,23.7597775 171.10765,22.9694461 Z M183.317747,27.2608551 L181.415654,27.2608551 L181.415654,22.3553494 C181.415654,20.843727 180.841574,20.0879157 179.687964,20.0879157 C179.122967,20.0879157 178.666974,20.2950371 178.314532,20.7110966 C177.962091,21.1271562 177.78587,21.6177067 177.78587,22.1791146 L177.78587,27.2590382 L175.880143,27.2590382 L175.880143,21.1435079 C175.880143,20.3913303 175.858342,19.5755629 175.812925,18.6925719 L177.484296,18.6925719 L177.573315,20.0315933 L177.626,20.0315933 C177.849455,19.6155337 178.180096,19.2721483 178.612472,18.9978034 C179.130234,18.6780371 179.706131,18.5163371 180.340162,18.5163371 C181.137697,18.5163371 181.802612,18.7743303 182.331275,19.2921337 C182.99074,19.9262157 183.317747,20.8727966 183.317747,22.1300596 L183.317747,27.2608551 Z M196.130992,20.122436 L194.034511,20.122436 L194.034511,24.2830315 C194.034511,25.3404404 194.406936,25.8691449 195.144519,25.8691449 C195.486061,25.8691449 195.769467,25.8400753 195.992922,25.7801191 L196.041973,27.224518 C195.665915,27.3662326 195.17177,27.4370899 194.563173,27.4370899 C193.811055,27.4370899 193.226075,27.2081663 192.802782,26.7503191 C192.377672,26.2924719 192.166934,25.5221258 192.166934,24.4410978 L192.166934,20.122436 L190.915222,20.122436 L190.915222,18.6962056 L192.166934,18.6962056 L192.166934,17.1264438 L194.032694,16.5632191 L194.032694,18.6943888 L196.129175,18.6943888 L196.129175,20.122436 L196.130992,20.122436 Z M206.210091,27.2608551 L204.304364,27.2608551 L204.304364,22.3916865 C204.304364,20.8564449 203.730284,20.0879157 202.580307,20.0879157 C201.697387,20.0879157 201.09424,20.5330449 200.763599,21.4233034 C200.707281,21.6104393 200.67458,21.8393629 200.67458,22.1082573 L200.67458,27.2590382 L198.772486,27.2590382 L198.772486,14.7663506 L200.67458,14.7663506 L200.67458,19.9280326 L200.710914,19.9280326 C201.310428,18.9887191 202.169731,18.5199708 203.283373,18.5199708 C204.071825,18.5199708 204.724023,18.777964 205.241785,19.2957674 C205.886717,19.9407506 206.210091,20.9000494 206.210091,22.1682135 L206.210091,27.2608551 Z M216.607113,22.5733719 C216.607113,22.9149404 216.58168,23.2020034 216.536262,23.4363775 L210.826347,23.4363775 C210.851781,24.2830315 211.124287,24.9280146 211.652949,25.3749607 C212.136194,25.7746685 212.759325,25.9745225 213.522342,25.9745225 C214.367112,25.9745225 215.137396,25.8400753 215.831379,25.569364 L216.129319,26.8920337 C215.31725,27.2445034 214.361662,27.4207382 213.255286,27.4207382 C211.929089,27.4207382 210.884482,27.0301146 210.128731,26.2488674 C209.369347,25.4676202 208.993288,24.4192955 208.993288,23.1038933 C208.993288,21.8121101 209.343913,20.7365326 210.050613,19.8789775 C210.788196,18.9632831 211.785569,18.505436 213.044548,18.505436 C214.276276,18.505436 215.211881,18.9632831 215.844096,19.8789775 C216.354591,20.6057191 216.607113,21.5050618 216.607113,22.5733719 Z M214.790405,22.0810045 C214.804939,21.5159629 214.679586,21.0290461 214.421613,20.6184371 C214.090972,20.0897326 213.587744,19.8244719 212.906478,19.8244719 C212.285164,19.8244719 211.778302,20.0824652 211.391343,20.6002685 C211.075236,21.0126944 210.888115,21.5050618 210.826347,22.0810045 L214.790405,22.0810045 Z" id="download-on-the" fill="#FFFFFF"></path>
                <path d="M50.6268196,39.5529915 C50.6872829,46.627269 56.8178965,48.9658278 56.8930176,48.9914658 C56.8563731,49.156282 55.9329334,52.3665353 53.6334953,55.6262335 C51.713327,58.4958666 49.7015477,61.3014046 46.5061531,61.3526808 C43.4023697,61.4241011 42.3580034,59.5268835 38.7979967,59.5268835 C35.2050101,59.5268835 34.0928516,61.3014046 31.1154914,61.4241011 C28.0721713,61.5358099 25.7470821,58.3603511 23.7572894,55.516356 C19.7795362,49.709332 16.6830817,39.1519388 20.8348959,31.9677838 C22.8466752,28.4443797 26.5147829,26.17541 30.4357372,26.1149774 C33.4827218,26.0527135 36.3098398,28.1715173 38.1823703,28.1715173 C40.0182563,28.1715173 43.5141352,25.6370104 47.1181152,26.0160877 C48.6260336,26.0600387 52.9170966,26.6112573 55.6855835,30.6455916 C55.4620525,30.7792759 50.5736852,33.6507403 50.6268196,39.5529915 Z M44.7637104,22.1960145 C43.0927242,24.1664837 40.4195129,25.6736363 37.8159259,25.4795194 C37.4751327,22.8204847 38.7943323,19.9929713 40.2711029,18.2678951 C41.9402568,16.3102449 44.8388315,14.8104175 47.1565918,14.7078652 C47.4607406,17.4712834 46.3650721,20.1944133 44.7637104,22.1960145 Z" fill="#FFFFFF"></path>
            </g>
        </g>
    </g>
</svg>