<?xml version="1.0" encoding="UTF-8" standalone="no"?>
<svg width="244px" height="84px" viewBox="0 0 244 84" version="1.1" xmlns="http://www.w3.org/2000/svg" xmlns:xlink="http://www.w3.org/1999/xlink">
    <!-- Generator: Sketch 42 (36781) - http://www.bohemiancoding.com/sketch -->
    <title>google play</title>
    <desc>Created with Sketch.</desc>
    <defs>
        <linearGradient x1="50%" y1="0%" x2="50%" y2="100%" id="linearGradient-1">
            <stop stop-color="#1E79AF" offset="0%"></stop>
            <stop stop-color="#63FFD3" offset="100%"></stop>
        </linearGradient>
        <linearGradient x1="84.7178118%" y1="14.4459862%" x2="5.24419544%" y2="96.5617838%" id="linearGradient-2">
            <stop stop-color="#DC4057" offset="0%"></stop>
            <stop stop-color="#9E36BB" offset="100%"></stop>
        </linearGradient>
        <linearGradient x1="50%" y1="0%" x2="50%" y2="97.8256537%" id="linearGradient-3">
            <stop stop-color="#FF9676" offset="0%"></stop>
            <stop stop-color="#FFD074" offset="100%"></stop>
        </linearGradient>
        <linearGradient x1="17.4435371%" y1="0%" x2="100%" y2="100%" id="linearGradient-4">
            <stop stop-color="#51C6AD" offset="0%"></stop>
            <stop stop-color="#D5FFA1" offset="100%"></stop>
        </linearGradient>
    </defs>
    <g id="Page-1" stroke="none" stroke-width="1" fill="none" fill-rule="evenodd">
        <g id="Landing" transform="translate(-436.000000, -1924.000000)">
            <g id="google-play" transform="translate(436.682447, 1924.865169)">
                <rect id="bg" fill="#000000" x="0" y="0" width="242.370284" height="82.1910112" rx="12"></rect>
                <g transform="translate(18.111757, 32.914317)">
                    <path d="M1.5163983,0.618084122 C0.833575674,0.833355095 0.391687379,1.53006953 0.391687379,2.58415498 L0.395895839,35.7592147 C0.395895839,36.8016352 0.824106639,37.4877452 1.4879912,37.716802 L19.905264,19.1525968 L1.5163983,0.618084122" id="left" fill="url(#linearGradient-1)"></path>
                    <path d="M1.4879912,37.716802 C1.9656514,37.880111 2.56430483,37.8037587 3.21661612,37.4432064 L25.6918965,24.9850616 L19.905264,19.1525968 L1.4879912,37.716802" id="bottom" fill="url(#linearGradient-2)"></path>
                    <path d="M25.6950528,24.9850616 L33.3586584,20.7379668 C34.9126322,19.8737015 34.9126322,18.4675473 33.3586584,17.6054029 L25.6666457,13.3424014 L19.905264,19.1494154 L25.6950528,24.9850616" id="right" fill="url(#linearGradient-3)"></path>
                    <path d="M25.6655936,13.3424014 L3.21661612,0.901223776 C2.58008655,0.550215441 1.99300639,0.468560933 1.51745042,0.618084122 L19.905264,19.1494154 L25.6655936,13.3424014" id="top" fill="url(#linearGradient-4)"></path>
                </g>
                <path d="M84.0028627,60.1825236 L79.2430945,61.2811478 C77.3145678,61.5876174 75.5827865,61.8569712 73.7489501,61.8569712 C64.5681947,61.8569712 61.0699124,55.0457128 61.0699124,49.7148399 C61.0699124,43.2047488 66.0264261,37.1686779 74.5148898,37.1686779 C76.3108501,37.1686779 78.0384229,37.4348504 79.6123869,37.8675133 C82.1069515,38.5737717 83.273747,39.4443997 84.0028627,39.9544752 L81.2379045,42.6013538 L80.0721611,42.8643449 L80.903332,41.5292407 C79.7775689,40.4210724 77.7080588,38.3754679 73.7805135,38.3754679 C68.5294076,38.3754679 64.5681947,42.3988082 64.5681947,48.2726305 C64.5681947,54.5812365 69.091237,60.5155043 76.3455698,60.5155043 C78.4771548,60.5155043 79.5745107,60.0839019 80.5708636,59.6809316 L80.5708636,54.2726461 L75.5449103,54.5451812 L78.2088655,53.1029718 L85.2622444,53.1029718 L84.3995101,53.9396653 C84.1669927,54.1390296 84.1354292,54.2068983 84.0701981,54.4741312 C84.0354783,54.7795403 84.0028627,55.7509108 84.0028627,56.0923751 L84.0028627,60.1825236 Z M94.9185557,61.4243083 C89.2739588,61.4243083 86.2596494,56.9948164 86.2596494,52.9842016 C86.2596494,48.2980812 90.0567324,44.2885268 95.4540822,44.2885268 C100.670468,44.2885268 103.936233,48.4073074 103.936233,52.7318149 C103.936233,56.9555799 100.709397,61.4243083 94.9185557,61.4243083 Z M99.3595331,58.5292849 C100.211746,57.3840009 100.424273,55.9545168 100.424273,54.561088 C100.424273,51.4094361 98.9302702,45.398816 94.5313774,45.398816 C93.356165,45.398816 92.1893694,45.8601109 91.3371563,46.6130291 C89.9483645,47.8654184 89.7021696,49.4391234 89.7021696,50.9831359 C89.7021696,54.51867 91.4434199,60.3500744 95.7392054,60.3500744 C97.1248408,60.3500744 98.5399355,59.672448 99.3595331,58.5292849 Z M113.813489,61.4243083 C108.169944,61.4243083 105.150374,56.9948164 105.150374,52.9842016 C105.150374,48.2980812 108.946405,44.2885268 114.345859,44.2885268 C119.565401,44.2885268 122.834323,48.4073074 122.834323,52.7318149 C122.834323,56.9555799 119.603278,61.4243083 113.813489,61.4243083 Z M118.253414,58.5292849 C119.11194,57.3840009 119.320259,55.9545168 119.320259,54.561088 C119.320259,51.4094361 117.830464,45.398816 113.427363,45.398816 C112.256359,45.398816 111.076938,45.8601109 110.226829,46.6130291 C108.840141,47.8654184 108.592894,49.4391234 108.592894,50.9831359 C108.592894,54.51867 110.32678,60.3500744 114.62993,60.3500744 C116.018722,60.3500744 117.435921,59.672448 118.253414,58.5292849 Z M135.825839,46.0446289 C136.641228,46.7201344 138.342498,48.1538603 138.342498,50.8728493 C138.342498,53.5229092 136.860068,54.7721171 135.365012,55.9545168 C134.90629,56.4200536 134.369711,56.9248269 134.369711,57.7053167 C134.369711,58.4974715 134.90629,58.926953 135.292416,59.2472083 L136.574944,60.24509 C138.134179,61.5717106 139.555586,62.7880447 139.555586,65.2588888 C139.555586,68.6247512 136.323489,72.0192457 130.215961,72.0192457 C125.071119,72.0192457 122.583919,69.549462 122.583919,66.901523 C122.583919,65.6130785 123.220449,63.7880473 125.32047,62.5377789 C127.521495,61.1814657 130.503189,61.0001291 132.100299,60.8940843 C131.601597,60.24509 131.032403,59.5653427 131.032403,58.456114 C131.032403,57.8495376 131.213366,57.4879248 131.388017,57.0616247 C130.999787,57.0987404 130.6084,57.1369165 130.252785,57.1369165 C126.487266,57.1369165 124.358837,54.30552 124.358837,51.5154809 C124.358837,49.8696654 125.103735,48.0435737 126.63351,46.7201344 C128.657779,45.0403845 131.071331,44.7508822 132.989337,44.7508822 L140.305744,44.7508822 L138.031072,46.0446289 L135.825839,46.0446289 Z M133.310232,61.9312026 C133.018796,61.8930264 132.844145,61.8930264 132.492738,61.8930264 C132.170791,61.8930264 130.252785,61.963016 128.767199,62.4656684 C127.981269,62.7551708 125.709753,63.6109524 125.709753,66.1528466 C125.709753,68.6894386 128.162233,70.5187116 131.95616,70.5187116 C135.365012,70.5187116 137.17465,68.8718357 137.17465,66.6544386 C137.17465,64.8294073 136.003646,63.8665204 133.310232,61.9312026 Z M134.330783,55.1316091 C135.151433,54.30552 135.222977,53.1644777 135.222977,52.5165439 C135.222977,49.9428363 133.700566,45.9343423 130.749384,45.9343423 C129.828783,45.9343423 128.831378,46.399879 128.26534,47.1199233 C127.664583,47.8654184 127.484671,48.8325471 127.484671,49.7625601 C127.484671,52.1591729 128.871358,56.1337326 131.92144,56.1337326 C132.811529,56.1337326 133.768954,55.6978884 134.330783,55.1316091 Z M145.529495,58.2822005 C145.529495,59.672448 145.77569,59.8887794 146.942485,59.9980056 C147.550608,60.0701161 148.156626,60.1019295 148.756332,60.17404 L147.443292,60.961953 L141.186364,60.961953 C142.007014,59.8887794 142.147997,59.7816742 142.147997,59.0669321 L142.147997,58.2684147 L142.13432,36.9915831 L139.371466,36.9915831 L142.031213,35.6999573 L147.10872,35.6999573 C146.008207,36.3425888 145.678895,36.7338942 145.537912,37.9862835 L145.529495,58.2822005 Z M162.980926,58.5589775 L161.282813,60.17404 C160.890374,60.3914318 160.500039,60.6438185 160.110757,60.8230342 C158.931336,61.3628023 157.731925,61.4985397 156.666132,61.4985397 C155.531952,61.4985397 153.753878,61.4243083 151.940032,60.1019295 C149.420216,58.3129535 148.318652,55.2376539 148.318652,52.5579014 C148.318652,47.0096367 152.79961,44.2885268 156.454657,44.2885268 C157.731925,44.2885268 159.043912,44.610903 160.110757,45.2906503 C161.884623,46.47305 162.343345,48.0096393 162.597956,48.8325471 L154.251528,52.2312834 L151.518134,52.4454939 C152.402962,56.9948164 155.4562,59.6406346 158.830333,59.6406346 C160.515821,59.6406346 161.766786,59.0860202 162.914643,58.5144386 C162.914643,58.5144386 163.145056,58.3935475 162.980926,58.5589775 Z M157.945504,49.5101734 C158.623066,49.2620286 158.975525,49.0478181 158.975525,48.5494074 C158.975525,47.1199233 157.371049,45.4688056 155.4562,45.4688056 C154.037949,45.4688056 151.375046,46.5822761 151.375046,50.4486701 C151.375046,51.052065 151.44659,51.6946966 151.482362,52.3373282 L157.945504,49.5101734 Z M173.214849,58.711682 L173.214849,67.8262338 L171.418889,67.8262338 L171.418889,44.6331724 L173.214849,44.6331724 L173.214849,47.2747488 C174.384801,45.5674272 176.522698,44.2142954 179.00569,44.2142954 C183.459292,44.2142954 186.458872,47.6193944 186.458872,53.0096523 C186.458872,58.363855 183.459292,61.840004 179.00569,61.840004 C176.661577,61.840004 174.561556,60.6215491 173.214849,58.711682 Z M184.529293,53.0096523 C184.529293,48.9470755 182.42822,45.848446 178.702681,45.848446 C176.38908,45.848446 174.176482,47.6809004 173.214849,49.2789957 L173.214849,56.7031932 C174.176482,58.3044699 176.38908,60.2037325 178.702681,60.2037325 C182.42822,60.2037325 184.529293,57.0785918 184.529293,53.0096523 Z M188.911352,38.2291261 L190.70626,38.2291261 L190.70626,61.4221874 L188.911352,61.4221874 L188.911352,38.2291261 Z M205.612626,61.3723464 C205.492684,60.7901604 205.402203,60.2769034 205.335919,59.8484824 C205.281209,59.4211218 205.249646,58.9842172 205.249646,58.5398894 C204.634159,59.4508143 203.761955,60.2090348 202.647766,60.8060671 C201.532524,61.4073412 200.473044,61.7021458 199.020073,61.7021458 C197.270406,61.7021458 195.912125,61.2684225 194.943128,60.3882505 C193.977286,59.509139 193.491209,58.3182557 193.491209,56.8113589 C193.491209,55.306583 194.195074,54.0849467 195.598595,53.1506919 C197.002117,52.2121953 198.815963,51.7455981 201.061176,51.7455981 L205.249646,51.7455981 L205.249646,49.6596966 C205.249646,48.4582089 204.84353,47.5133496 204.032349,46.8283001 C203.218012,46.1421901 202.075415,45.7954236 200.594037,45.7954236 C199.239965,45.7954236 198.141557,46.1124976 197.305126,46.7296784 C196.476059,47.3595846 196.058369,48.1400744 196.058369,49.0806919 L194.220325,49.0806919 L194.182448,48.9905539 C194.116165,47.7222579 194.691672,46.6098478 195.915282,45.6490818 C197.133631,44.6893762 198.729689,44.2068723 200.693988,44.2068723 C202.651974,44.2068723 204.236459,44.681953 205.43061,45.6299937 C206.623708,46.5684903 207.222362,47.9248035 207.222362,49.6978728 L207.222362,57.9799728 C207.222362,58.5748842 207.250769,59.1496471 207.324417,59.7095637 C207.400169,60.2705408 207.521162,60.8304574 207.682136,61.3723464 L205.612626,61.3723464 Z M199.239965,60.0531489 C200.765532,60.0531489 201.861836,59.7095637 202.982338,59.0298164 C204.095476,58.354311 204.852999,57.4730786 205.249646,56.4062677 L205.249646,53.1825054 L201.041186,53.1825054 C199.433554,53.1825054 198.102629,53.5409368 197.055774,54.2641625 C196.006816,54.9852672 195.475498,55.858016 195.475498,56.8728649 C195.475498,57.8304496 195.812174,58.5960931 196.48132,59.1761583 C197.152569,59.7625861 198.070013,60.0531489 199.239965,60.0531489 Z M210.858471,66.3267601 C211.242493,66.4996132 211.897961,66.605658 212.313546,66.605658 C213.411954,66.605658 214.176842,66.1528466 214.863873,64.5536908 L216.173756,61.5621666 L209.099335,44.6331724 L211.102562,44.6331724 L217.171161,59.3034121 L223.180842,44.6331724 L225.212476,44.6331724 L216.584081,65.1146679 C215.688731,67.2249597 214.279949,68.2398086 212.345109,68.2398086 C211.764342,68.2398086 210.998402,68.1358846 210.550201,67.9969659 L210.858471,66.3267601 Z" id="logotype" fill="#FFFFFF"></path>
                <path d="M60.9360232,19.1060089 C60.9360232,15.5043251 63.6131949,13.1875027 66.9433092,13.1875027 C69.1744643,13.1875027 70.6325955,14.2516122 71.5428553,15.5546909 L69.9121071,16.4987799 C69.2945457,15.6404197 68.212741,14.9728062 66.9433092,14.9728062 C64.6789173,14.9728062 62.9956335,16.6873834 62.9956335,19.1060089 C62.9956335,21.4892712 64.6789173,23.2392116 66.9433092,23.2392116 C68.1108863,23.2392116 69.1401554,22.7076926 69.6547899,22.2104653 L69.6547899,20.4433791 L66.2228209,20.4433791 L66.2228209,18.676293 L71.6457822,18.676293 L71.6457822,22.9477335 C70.5307407,24.2004464 68.9171471,25.0405893 66.9433092,25.0405893 C63.6131949,25.0405893 60.9360232,22.6916185 60.9360232,19.1060089 Z M74.1288938,24.8176942 L74.1288938,13.3761062 L81.9717096,13.3761062 L81.9717096,15.1442639 L76.1359685,15.1442639 L76.1359685,18.0933367 L81.8516283,18.0933367 L81.8516283,19.8604229 L76.1359685,19.8604229 L76.1359685,23.0506081 L81.9717096,23.0506081 L81.9717096,24.8176942 L74.1288938,24.8176942 Z M87.5276183,24.8176942 L87.5276183,15.1442639 L84.0613403,15.1442639 L84.0613403,13.3761062 L93.0020431,13.3761062 L93.0020431,15.1442639 L89.5357651,15.1442639 L89.5357651,24.8176942 L87.5276183,24.8176942 Z M99.9807018,13.3761062 L101.987776,13.3761062 L101.987776,24.8176942 L99.9807018,24.8176942 L99.9807018,13.3761062 Z M107.580138,24.8176942 L107.580138,15.1442639 L104.11386,15.1442639 L104.11386,13.3761062 L113.054563,13.3761062 L113.054563,15.1442639 L109.588285,15.1442639 L109.588285,24.8176942 L107.580138,24.8176942 Z M119.535742,19.1060089 C119.535742,15.691857 121.954524,13.1875027 125.388637,13.1875027 C128.80238,13.1875027 131.240461,15.691857 131.240461,19.1060089 C131.240461,22.5190892 128.80238,25.0234435 125.388637,25.0234435 C121.954524,25.0234435 119.535742,22.5190892 119.535742,19.1060089 Z M129.180851,19.1060089 C129.180851,16.7388207 127.687338,14.9728062 125.388637,14.9728062 C123.070638,14.9728062 121.595352,16.7388207 121.595352,19.1060089 C121.595352,21.4549797 123.070638,23.2392116 125.388637,23.2392116 C127.687338,23.2392116 129.180851,21.4549797 129.180851,19.1060089 Z M141.565316,24.8176942 L135.592339,16.6359461 L135.592339,24.8176942 L133.585264,24.8176942 L133.585264,13.3761062 L135.644875,13.3761062 L141.496698,21.3017393 L141.496698,13.3761062 L143.504845,13.3761062 L143.504845,24.8176942 L141.565316,24.8176942 Z" id="get-it-on" fill="#FFFFFF"></path>
            </g>
        </g>
    </g>
</svg>