<?xml version="1.0" encoding="UTF-8" standalone="no"?>
<svg width="46px" height="60px" viewBox="0 0 46 60" version="1.1" xmlns="http://www.w3.org/2000/svg" xmlns:xlink="http://www.w3.org/1999/xlink">
    <!-- Generator: Sketch 42 (36781) - http://www.bohemiancoding.com/sketch -->
    <title>Group 11 Copy</title>
    <desc>Created with Sketch.</desc>
    <defs></defs>
    <g id="Page-1" stroke="none" stroke-width="1" fill="none" fill-rule="evenodd">
        <g id="Government" transform="translate(-148.000000, -50.000000)" fill-rule="nonzero" fill="#FFFFFF">
            <g id="Group-11-Copy" transform="translate(148.000000, 50.000000)">
                <path d="M33.0872093,57.1353488 L26.0044186,28.8034884 C28.1748837,27.6195349 29.6511628,25.315814 29.6511628,22.6744186 C29.6511628,18.8274419 26.5213953,15.6976744 22.6744186,15.6976744 C18.8274419,15.6976744 15.6976744,18.8274419 15.6976744,22.6744186 C15.6976744,25.315814 17.1739535,27.6195349 19.3444186,28.8034884 L12.2616279,57.1353488 C12.027907,58.0702326 12.595814,59.0169767 13.5306977,59.2506977 C14.4662791,59.4851163 15.4130233,58.9165116 15.6460465,57.9816279 L16.1881395,55.8146512 L29.162093,55.8146512 L29.704186,57.9816279 C29.9023256,58.774186 30.6132558,59.3037209 31.3946512,59.3037209 C31.5348837,59.3037209 31.6772093,59.2869767 31.8188372,59.2513953 C32.7530233,59.0169767 33.3209302,58.0695349 33.0872093,57.1353488 Z M19.1860465,22.6744186 C19.1860465,20.7509302 20.7509302,19.1860465 22.6744186,19.1860465 C24.597907,19.1860465 26.1627907,20.7509302 26.1627907,22.6744186 C26.1627907,24.597907 24.597907,26.1627907 22.6744186,26.1627907 C20.7509302,26.1627907 19.1860465,24.597907 19.1860465,22.6744186 Z M24.8009302,38.372093 L20.547907,38.372093 L22.6744186,29.8660465 L24.8009302,38.372093 Z M19.675814,41.8604651 L25.6730233,41.8604651 L26.5451163,45.3488372 L18.8037209,45.3488372 L19.675814,41.8604651 Z M17.0595349,52.3255814 L17.9316279,48.8372093 L27.4172093,48.8372093 L28.2893023,52.3255814 L17.0595349,52.3255814 Z" id="Shape"></path>
                <path d="M31.1176744,33.9083721 C31.4595349,34.262093 31.9151163,34.44 32.3713953,34.44 C32.8081395,34.44 33.2448837,34.2774419 33.5839535,33.9495349 C36.6718605,30.9606977 38.372093,26.9567442 38.372093,22.6744186 C38.372093,14.0190698 31.3304651,6.97674419 22.6744186,6.97674419 C14.0183721,6.97674419 6.97674419,14.0190698 6.97674419,22.6744186 C6.97674419,26.9567442 8.67767442,30.9606977 11.7648837,33.9488372 C12.4576744,34.6193023 13.5613953,34.6004651 14.2311628,33.9076744 C14.9009302,33.2155814 14.8834884,32.1118605 14.1906977,31.4413953 C11.787907,29.1167442 10.4651163,26.0030233 10.4651163,22.6744186 C10.4651163,15.9425581 15.9425581,10.4651163 22.6744186,10.4651163 C29.4062791,10.4651163 34.8837209,15.9425581 34.8837209,22.6744186 C34.8837209,26.0030233 33.5609302,29.1167442 31.1581395,31.4413953 C30.4653488,32.1118605 30.447907,33.2155814 31.1176744,33.9083721 Z" id="Shape"></path>
                <path d="M34.23,41.8695349 C34.5613953,41.8695349 34.8962791,41.7753488 35.192093,41.5786047 C41.552093,37.3597674 45.3488372,30.2923256 45.3488372,22.6744186 C45.3488372,10.1713953 35.1767442,-3.55271368e-15 22.6744186,-3.55271368e-15 C10.172093,-3.55271368e-15 0,10.1713953 0,22.6744186 C0,30.2923256 3.79674419,37.3597674 10.1567442,41.5786047 C10.9590698,42.1123256 12.0418605,41.8918605 12.574186,41.0895349 C13.1065116,40.2872093 12.8874419,39.2044186 12.0844186,38.672093 C6.70186047,35.1006977 3.48837209,29.1202326 3.48837209,22.6744186 C3.48837209,12.0955814 12.0948837,3.48837209 22.6744186,3.48837209 C33.2539535,3.48837209 41.8604651,12.0955814 41.8604651,22.6744186 C41.8604651,29.1202326 38.6469767,35.1006977 33.2644186,38.672093 C32.4613953,39.2044186 32.2423256,40.2865116 32.7746512,41.0895349 C33.1102326,41.5953488 33.6648837,41.8695349 34.23,41.8695349 Z" id="Shape"></path>
            </g>
        </g>
    </g>
</svg>
