<svg xmlns="http://www.w3.org/2000/svg" xmlns:xlink="http://www.w3.org/1999/xlink" viewBox="0 0 16 20" version="1.1" x="0px" y="0px"><title>033-love symbol</title><desc>Created with Sketch.</desc><g stroke="none" stroke-width="1" fill="none" fill-rule="evenodd"><g fill="#000000"><path d="M6.0764,13.4542 C3.8704,13.4542 2.0764,11.6602 2.0764,9.4542 C2.0764,7.2482 3.8704,5.4542 6.0764,5.4542 C8.2824,5.4542 10.0764,7.2482 10.0764,9.4542 C10.0764,11.6602 8.2824,13.4542 6.0764,13.4542 L6.0764,13.4542 Z M9.0764,0.4542 L9.0764,2.4542 L11.6624,2.4542 L9.5474,4.5692 C8.5664,3.8702 7.3704,3.4542 6.0764,3.4542 C2.7674,3.4542 0.0764,6.1452 0.0764,9.4542 C0.0764,12.7632 2.7674,15.4542 6.0764,15.4542 C9.3854,15.4542 12.0764,12.7632 12.0764,9.4542 C12.0764,8.1602 11.6604,6.9642 10.9614,5.9832 L13.0764,3.8682 L13.0764,6.4542 L15.0764,6.4542 L15.0764,0.4542 L9.0764,0.4542 Z"/></g></g><text x="0" y="31" fill="#000000" font-size="5px" font-weight="bold" font-family="'Helvetica Neue', Helvetica, Arial-Unicode, Arial, Sans-serif">Created by Richard Wearn</text><text x="0" y="36" fill="#000000" font-size="5px" font-weight="bold" font-family="'Helvetica Neue', Helvetica, Arial-Unicode, Arial, Sans-serif">from the Noun Project</text></svg>