<?xml version="1.0" encoding="UTF-8" standalone="no"?>
<svg width="24px" height="24px" viewBox="0 0 24 24" version="1.1" xmlns="http://www.w3.org/2000/svg" xmlns:xlink="http://www.w3.org/1999/xlink">
    <!-- Generator: Sketch 42 (36781) - http://www.bohemiancoding.com/sketch -->
    <title>delete [#1487] copy 2</title>
    <desc>Created with Sketch.</desc>
    <defs></defs>
    <g id="Page-1" stroke="none" stroke-width="1" fill="none" fill-rule="evenodd">
        <g id="Government" transform="translate(-1157.000000, -742.000000)" fill="#C4C4C4">
            <path d="M1165.33333,761.047619 L1167.71429,761.047619 L1167.71429,751.52381 L1165.33333,751.52381 L1165.33333,761.047619 Z M1170.09524,761.047619 L1172.47619,761.047619 L1172.47619,751.52381 L1170.09524,751.52381 L1170.09524,761.047619 Z M1162.95238,763.428571 L1174.85714,763.428571 L1174.85714,749.142857 L1162.95238,749.142857 L1162.95238,763.428571 Z M1165.33333,746.761905 L1172.47619,746.761905 L1172.47619,744.380952 L1165.33333,744.380952 L1165.33333,746.761905 Z M1174.85714,746.761905 L1174.85714,742 L1162.95238,742 L1162.95238,746.761905 L1157,746.761905 L1157,749.142857 L1160.57143,749.142857 L1160.57143,765.809524 L1177.2381,765.809524 L1177.2381,749.142857 L1180.80952,749.142857 L1180.80952,746.761905 L1174.85714,746.761905 Z" id="delete-[#1487]-copy-2"></path>
        </g>
    </g>
</svg>