<?xml version="1.0" encoding="UTF-8" standalone="no"?>
<svg width="48px" height="47px" viewBox="0 0 48 47" version="1.1" xmlns="http://www.w3.org/2000/svg" xmlns:xlink="http://www.w3.org/1999/xlink">
    <!-- Generator: Sketch 42 (36781) - http://www.bohemiancoding.com/sketch -->
    <title>Twitter</title>
    <desc>Created with Sketch.</desc>
    <defs></defs>
    <g id="Page-1" stroke="none" stroke-width="1" fill="none" fill-rule="evenodd">
        <g id="Landing" transform="translate(-1219.000000, -2369.000000)">
            <g id="Twitter" transform="translate(1220.455056, 2370.000000)">
                <g>
                    <path d="M45.191899,22.4999158 C45.191899,34.9263938 35.0753969,45 22.5959495,45 C10.1165021,45 0,34.9263938 0,22.4999158 C0,10.0736062 10.1165021,0 22.5959495,0 C35.0753969,0 45.191899,10.0736062 45.191899,22.4999158 Z" id="Background" stroke="#FFFFFF" stroke-width="2"></path>
                    <path d="M29.8504386,17.7631579 C30.6829209,17.2894737 31.2775512,16.5789474 31.5154033,15.6315789 C30.801847,16.1052632 29.9693646,16.3421053 29.0179562,16.5789474 C28.3043999,15.8684211 27.2340655,15.3947368 26.163731,15.3947368 C24.1419882,15.3947368 22.3580974,17.1710526 22.3580974,19.3026316 C22.3580974,19.6578947 22.3580974,19.8947368 22.4770235,20.1315789 C19.2660201,20.0131579 16.2928689,18.4736842 14.3900521,16.1052632 C14.0332739,16.6973684 13.9143479,17.2894737 13.9143479,18.1184211 C13.9143479,19.4210526 14.6279042,20.6052632 15.6982386,21.3157895 C15.1036084,21.3157895 14.5089781,21.0789474 13.9143479,20.8421053 C13.9143479,22.7368421 15.2225344,24.2763158 17.0064252,24.6315789 C16.649647,24.75 16.2928689,24.75 15.9360907,24.75 C15.6982386,24.75 15.4603865,24.75 15.2225344,24.6315789 C15.6982386,26.1710526 17.1253512,27.3552632 18.909242,27.3552632 C17.6010554,28.4210526 15.9360907,29.0131579 14.0332739,29.0131579 L13.0818655,29.0131579 C14.8657563,30.0789474 16.8874991,30.7894737 19.028168,30.7894737 C26.163731,30.7894737 30.0882907,24.8684211 30.0882907,19.7763158 L30.0882907,19.3026316 C30.920773,18.7105263 31.6343293,18 32.1100335,17.1710526 C31.3964772,17.5263158 30.6829209,17.6447368 29.8504386,17.7631579 Z" id="Shape" fill="#FFFFFF"></path>
                </g>
            </g>
        </g>
    </g>
</svg>