<?xml version="1.0" encoding="UTF-8" standalone="no"?>
<svg width="25px" height="25px" viewBox="0 0 25 25" version="1.1" xmlns="http://www.w3.org/2000/svg" xmlns:xlink="http://www.w3.org/1999/xlink">
    <!-- Generator: Sketch 42 (36781) - http://www.bohemiancoding.com/sketch -->
    <title>profile [#1339]</title>
    <desc>Created with Sketch.</desc>
    <defs></defs>
    <g id="Page-1" stroke="none" stroke-width="1" fill="none" fill-rule="evenodd">
        <g id="Overview-Stats" transform="translate(-485.000000, -958.000000)" fill="#00BFE9">
            <path d="M502.5,965.5 C502.5,962.7425 500.2575,960.5 497.5,960.5 C494.7425,960.5 492.5,962.7425 492.5,965.5 C492.5,968.2575 494.7425,970.5 497.5,970.5 C500.2575,970.5 502.5,968.2575 502.5,965.5 L502.5,965.5 Z M510,983 L503.75,983 L503.75,980.5 L507.23,980.5 C506.1975,975.7675 502.23125,973 497.5,973 C492.76875,973 488.8025,975.7675 487.77,980.5 L491.25,980.5 L491.25,983 L485,983 C485,977.30625 488.22875,973.06 492.8025,971.34125 C491.095,969.9675 490,967.8625 490,965.5 C490,961.3575 493.3575,958 497.5,958 C501.6425,958 505,961.3575 505,965.5 C505,967.8625 503.905,969.9675 502.1975,971.34125 C506.77125,973.06 510,977.30625 510,983 L510,983 Z M500.5175,976.44625 L502.285,978.215 L497.5,983 L493.965,979.465 L495.7325,977.69625 L497.5,979.465 L500.5175,976.44625 Z" id="profile-[#1339]"></path>
        </g>
    </g>
</svg>