<?xml version="1.0" encoding="UTF-8" standalone="no"?>
<svg width="30px" height="30px" viewBox="0 0 30 30" version="1.1" xmlns="http://www.w3.org/2000/svg" xmlns:xlink="http://www.w3.org/1999/xlink">
    <!-- Generator: Sketch 42 (36781) - http://www.bohemiancoding.com/sketch -->
    <title>inbox_done_round [#1543]</title>
    <desc>Created with Sketch.</desc>
    <defs></defs>
    <g id="Page-1" stroke="none" stroke-width="1" fill="none" fill-rule="evenodd">
        <g id="Overview-Stats" transform="translate(-913.000000, -962.000000)" fill="#00BFE9">
            <path d="M923.758,973.121 C923.1715,972.5345 923.1715,971.585 923.758,971 C924.3445,970.4135 925.294,970.4135 925.879,971 L926.9395,972.0605 L930.1225,968.879 C930.7075,968.2925 931.657,968.2925 932.2435,968.879 C932.8285,969.464 932.8285,970.4135 932.2435,971 L926.9395,976.3025 C922.5445,971.9075 925.6615,975.0245 923.758,973.121 L923.758,973.121 Z M938.5,977 L938.5,972.374 L940,977 L938.5,977 Z M940,987.374 C940,988.2035 939.3295,989 938.5,989 L917.5,989 C916.672,989 916,988.2035 916,987.374 L916,980 L920.5,980 C921.3295,980 922,980.546 922,981.374 L922,982.874 C922,984.5315 923.344,986 925,986 L931,986 C932.6575,986 934,984.5315 934,982.874 L934,981.374 C934,980.546 934.672,980 935.5,980 L940,980 L940,987.374 Z M917.5,972.374 L917.5,977 L916,977 L917.5,972.374 Z M920.5,966.374 C920.5,965.546 921.172,965 922,965 L934,965 C934.8295,965 935.5,965.546 935.5,966.374 L935.5,977 L934,977 C932.344,977 931,978.218 931,979.874 L931,981.374 C931,982.2035 930.3295,983 929.5,983 L926.5,983 C925.672,983 925,982.2035 925,981.374 L925,979.874 C925,978.218 923.6575,977 922,977 L920.5,977 L920.5,966.374 Z M940,968 L938.5,968 L938.5,964.874 C938.5,963.218 937.1575,962 935.5,962 L920.5,962 C918.844,962 917.5,963.218 917.5,964.874 L917.5,968 L916,968 L913,976.874 L913,988.874 C913,990.5315 914.344,992 916,992 L940,992 C941.6575,992 943,990.5315 943,988.874 L943,976.874 L940,968 Z" id="inbox_done_round-[#1543]"></path>
        </g>
    </g>
</svg>