<?xml version="1.0" encoding="UTF-8" standalone="no"?>
<svg width="30px" height="30px" viewBox="0 0 30 30" version="1.1" xmlns="http://www.w3.org/2000/svg" xmlns:xlink="http://www.w3.org/1999/xlink">
    <!-- Generator: Sketch 42 (36781) - http://www.bohemiancoding.com/sketch -->
    <title>inbox_close_round [#1547]</title>
    <desc>Created with Sketch.</desc>
    <defs></defs>
    <g id="Page-1" stroke="none" stroke-width="1" fill="none" fill-rule="evenodd">
        <g id="Overview-Stats" transform="translate(-1190.000000, -962.000000)" fill="#144752">
            <path d="M1201.8185,972.0605 L1202.879,971 L1201.8185,969.9395 C1201.232,969.353 1201.232,968.4035 1201.8185,967.8185 C1202.405,967.232 1203.3545,967.232 1203.9395,967.8185 L1205,968.879 L1206.0605,967.8185 C1206.647,967.232 1207.5965,967.232 1208.183,967.8185 C1208.768,968.4035 1208.768,969.353 1208.183,969.9395 L1207.1225,971 L1208.183,972.0605 C1208.768,972.647 1208.768,973.5965 1208.183,974.1815 C1207.5965,974.768 1206.647,974.768 1206.0605,974.1815 L1205,973.121 L1203.9395,974.1815 C1203.3545,974.768 1202.405,974.768 1201.8185,974.1815 C1201.232,973.5965 1201.232,972.647 1201.8185,972.0605 L1201.8185,972.0605 Z M1215.5,977 L1215.5,972.3755 L1217,977 L1215.5,977 Z M1217,987.3755 C1217,988.2035 1216.3295,989 1215.5,989 L1194.5,989 C1193.672,989 1193,988.2035 1193,987.3755 L1193,980 L1197.5,980 C1198.3295,980 1199,980.546 1199,981.3755 L1199,982.8755 C1199,984.5315 1200.344,986 1202,986 L1208,986 C1209.6575,986 1211,984.5315 1211,982.8755 L1211,981.3755 C1211,980.546 1211.672,980 1212.5,980 L1217,980 L1217,987.3755 Z M1194.5,972.3755 L1194.5,977 L1193,977 L1194.5,972.3755 Z M1197.5,966.3755 C1197.5,965.546 1198.172,965 1199,965 L1211,965 C1211.8295,965 1212.5,965.546 1212.5,966.3755 L1212.5,977 L1211,977 C1209.344,977 1208,978.218 1208,979.8755 L1208,981.3755 C1208,982.2035 1207.3295,983 1206.5,983 L1203.5,983 C1202.672,983 1202,982.2035 1202,981.3755 L1202,979.8755 C1202,978.218 1200.6575,977 1199,977 L1197.5,977 L1197.5,966.3755 Z M1217,968 L1215.5,968 L1215.5,964.8755 C1215.5,963.218 1214.1575,962 1212.5,962 L1197.5,962 C1195.844,962 1194.5,963.218 1194.5,964.8755 L1194.5,968 L1193,968 L1190,976.8755 L1190,988.8755 C1190,990.5315 1191.344,992 1193,992 L1217,992 C1218.6575,992 1220,990.5315 1220,988.8755 L1220,976.8755 L1217,968 Z" id="inbox_close_round-[#1547]"></path>
        </g>
    </g>
</svg>