<?xml version="1.0" encoding="UTF-8" standalone="no"?>
<svg width="25px" height="25px" viewBox="0 0 25 25" version="1.1" xmlns="http://www.w3.org/2000/svg" xmlns:xlink="http://www.w3.org/1999/xlink">
    <!-- Generator: Sketch 42 (36781) - http://www.bohemiancoding.com/sketch -->
    <title>profile [#1336]</title>
    <desc>Created with Sketch.</desc>
    <defs></defs>
    <g id="Page-1" stroke="none" stroke-width="1" fill="none" fill-rule="evenodd">
        <g id="Overview-Stats" transform="translate(-759.000000, -958.000000)" fill="#144752">
            <path d="M771.5,973 C776.23125,973 780.1975,975.7675 781.23,980.5 L761.77,980.5 C762.8025,975.7675 766.76875,973 771.5,973 M766.5,965.5 C766.5,962.7425 768.7425,960.5 771.5,960.5 C774.2575,960.5 776.5,962.7425 776.5,965.5 C776.5,968.2575 774.2575,970.5 771.5,970.5 C768.7425,970.5 766.5,968.2575 766.5,965.5 M776.1975,971.34125 C777.905,969.9675 779,967.8625 779,965.5 C779,961.3575 775.6425,958 771.5,958 C767.3575,958 764,961.3575 764,965.5 C764,967.8625 765.095,969.9675 766.8025,971.34125 C762.22875,973.06 759,977.30625 759,983 L784,983 C784,977.30625 780.77125,973.06 776.1975,971.34125" id="profile-[#1336]"></path>
        </g>
    </g>
</svg>